<svg xmlns="http://www.w3.org/2000/svg" width="160" height="160" viewBox="0 0 160 160" role="img" aria-labelledby="title desc">
  <title id="title">Logotipo Synapse</title>
  <desc id="desc">Símbolo circular com órbitas conectadas representando a Synapse.</desc>
  <defs>
    <radialGradient id="synapse-bg" cx="50%" cy="50%" r="58%">
      <stop offset="0%" stop-color="#111936"/>
      <stop offset="65%" stop-color="#0A122B"/>
      <stop offset="100%" stop-color="#040615"/>
    </radialGradient>
    <linearGradient id="synapse-ring" x1="12%" y1="10%" x2="88%" y2="90%">
      <stop offset="0%" stop-color="#7C5CFF"/>
      <stop offset="50%" stop-color="#5E8CFF"/>
      <stop offset="100%" stop-color="#2BD6FF"/>
    </linearGradient>
    <linearGradient id="synapse-node" x1="0%" y1="0%" x2="100%" y2="100%">
      <stop offset="0%" stop-color="#7BD6FF"/>
      <stop offset="100%" stop-color="#29E0FF"/>
    </linearGradient>
  </defs>

  <g fill="none">
    <circle cx="80" cy="80" r="70" fill="url(#synapse-bg)"/>
    <circle cx="80" cy="80" r="70" stroke="url(#synapse-ring)" stroke-width="6" opacity="0.85"/>
    <circle cx="80" cy="80" r="54" stroke="url(#synapse-ring)" stroke-width="1.6" stroke-dasharray="6 10" opacity="0.65"/>

    <path d="M49 110c10.4-6.8 18.4-17.1 22.5-28.8 6.7-19.1 0.9-39.7-11.8-53.5" stroke="url(#synapse-ring)" stroke-width="4.2" stroke-linecap="round" opacity="0.75"/>
    <path d="M63 46c14-7.8 32-6 45.5 5.4 13 11 18.8 29 14.8 45.5" stroke="url(#synapse-ring)" stroke-width="3.6" stroke-linecap="round" opacity="0.8"/>
    <path d="M54 74c12.5 23.4 36.8 36.5 62.2 34.2" stroke="url(#synapse-ring)" stroke-width="2.8" stroke-linecap="round" opacity="0.65"/>

    <circle cx="52" cy="42" r="5.5" fill="url(#synapse-node)"/>
    <circle cx="99" cy="42" r="4.5" fill="url(#synapse-node)" opacity="0.9"/>
    <circle cx="126" cy="88" r="6.5" fill="url(#synapse-node)"/>
    <circle cx="44" cy="112" r="6" fill="url(#synapse-node)"/>
    <circle cx="92" cy="118" r="4.8" fill="url(#synapse-node)" opacity="0.8"/>
  </g>
</svg>
