<svg xmlns="http://www.w3.org/2000/svg" width="48" height="48" viewBox="0 0 24 24" fill="none">
  <defs>
    <linearGradient id="g" x1="0" y1="0" x2="1" y2="1">
      <stop offset="0" stop-color="#4f46e5"/><stop offset="1" stop-color="#22c55e"/>
    </linearGradient>
  </defs>
  <path d="M12 2c5.5 0 10 4.5 10 10s-4.5 10-10 10S2 17.5 2 12 6.5 2 12 2Z" fill="url(#g)" opacity=".15"/>
  <path d="M7 8a3 3 0 1 1 0 6H6v2a1 1 0 0 1-2 0v-2a3 3 0 0 1 3-3h1a1 1 0 0 0 0-2H6a1 1 0 1 1 0-2h1Zm10 0a1 1 0 1 1 0 2h-1a1 1 0 0 0 0 2h1a3 3 0 0 1 3 3v2a1 1 0 1 1-2 0v-2h-1a3 3 0 1 1 0-6h1Z" fill="url(#g)"/>
</svg>
