<svg width="256" height="256" viewBox="0 0 256 256" fill="none" xmlns="http://www.w3.org/2000/svg">
  <defs>
    <linearGradient id="synapseStroke" x1="32" y1="32" x2="224" y2="224" gradientUnits="userSpaceOnUse">
      <stop offset="0" stop-color="#6C4DF4"/>
      <stop offset="0.5" stop-color="#5B63F9"/>
      <stop offset="1" stop-color="#25D8FF"/>
    </linearGradient>
    <radialGradient id="synapseGlow" cx="0" cy="0" r="1" gradientUnits="userSpaceOnUse" gradientTransform="translate(128 128) rotate(90) scale(120)">
      <stop offset="0" stop-color="#1A1E35"/>
      <stop offset="1" stop-color="#050713"/>
    </radialGradient>
    <linearGradient id="synapseNodes" x1="80" y1="76" x2="196" y2="188" gradientUnits="userSpaceOnUse">
      <stop offset="0" stop-color="#76A4FF"/>
      <stop offset="1" stop-color="#30E7FF"/>
    </linearGradient>
  </defs>
  <circle cx="128" cy="128" r="116" fill="url(#synapseGlow)"/>
  <circle cx="128" cy="128" r="116" stroke="url(#synapseStroke)" stroke-width="8"/>
  <path d="M148 56c-50 0-88 38-88 87.5 0 24.4 10.3 46.4 27.1 62.4 2.4 2.3 3.6 5.6 3.2 8.9l-1.4 16.6c-.5 5.4-4 10.1-8.9 12.4l-18.8 8.6c-3 1.4-5 4.4-5 7.7v6.5c19.8 11.7 42.4 18.4 66.7 18.4 70.7 0 128-57.3 128-128S218.7 56 148 56z" fill="url(#synapseStroke)" fill-opacity="0.08"/>
  <path d="M148 56c-50 0-88 38-88 87.5 0 24.4 10.3 46.4 27.1 62.4 2.4 2.3 3.6 5.6 3.2 8.9l-1.4 16.6c-.5 5.4-4 10.1-8.9 12.4l-18.8 8.6c-3 1.4-5 4.4-5 7.7v6.5c19.8 11.7 42.4 18.4 66.7 18.4 70.7 0 128-57.3 128-128S218.7 56 148 56z" stroke="url(#synapseStroke)" stroke-opacity="0.28" stroke-width="6" stroke-linecap="round" stroke-linejoin="round"/>
  <path d="M104 78c14.5 20.8 22.3 46.2 22.3 72.1 0 15.7-2.8 30.7-8.3 44.6" stroke="url(#synapseNodes)" stroke-width="9" stroke-linecap="round" stroke-opacity="0.65"/>
  <path d="M94 116c12.2-11.2 31-20 52.2-20 33.9 0 61.3 19 61.3 57.6 0 20.8-8.4 38.9-22.4 50.9" stroke="url(#synapseNodes)" stroke-width="10" stroke-linecap="round" stroke-opacity="0.8"/>
  <path d="M114 94c17.6-2.4 36.3 7.6 51.5 22.8 11.7 11.7 22.8 27.8 29.7 44.3" stroke="url(#synapseNodes)" stroke-width="7" stroke-linecap="round" stroke-opacity="0.9"/>
  <g fill="url(#synapseNodes)">
    <circle cx="100" cy="78" r="7"/>
    <circle cx="92" cy="118" r="7"/>
    <circle cx="140" cy="58" r="6"/>
    <circle cx="170" cy="108" r="7"/>
    <circle cx="205" cy="138" r="9"/>
    <circle cx="182" cy="184" r="8"/>
    <circle cx="140" cy="192" r="7"/>
    <circle cx="122" cy="156" r="6"/>
  </g>
</svg>
